<?xml version="1.0" encoding="utf-8"?>
<!-- Generator: Adobe Illustrator 16.0.0, SVG Export Plug-In . SVG Version: 6.00 Build 0)  -->
<!DOCTYPE svg PUBLIC "-//W3C//DTD SVG 1.1//EN" "http://www.w3.org/Graphics/SVG/1.1/DTD/svg11.dtd">
<svg version="1.1" id="Layer_1" xmlns="http://www.w3.org/2000/svg" xmlns:xlink="http://www.w3.org/1999/xlink" x="0px" y="0px"
	 width="1309.303px" height="690.698px" viewBox="0 0 1309.303 690.698" enable-background="new 0 0 1309.303 690.698"
	 xml:space="preserve">
<g>
	<g>
		<path fill="#FFD700" d="M125.947,673.568c11.874-62.273,28.353-123.564,47.943-183.836
			c17.431-53.632,37.879-106.057,58.755-158.414c12.615-31.637,26.336-63.068,44.292-92.171
			c9.261-15.01,19.801-29.459,33.043-41.222c10.518-9.343,22.816-15.756,36.187-15.047c5.663,0.3,11.697,2.604,16.831,5.472
			c5.975,3.338,10.145,7.034,14.964,12.231c10.055,10.844,17.426,25.124,23.093,39.107c13.846,34.166,20.486,71.322,25.313,107.708
			c3.509,26.451,5.504,53.034,8.122,79.577c5.581,56.6,22.538,111.226,30.391,167.463c0.566,4.057,5.676,6.215,9.226,5.238
			c4.32-1.188,5.803-5.181,5.238-9.226c-7.992-57.242-25.248-112.794-30.515-170.464c-2.951-32.313-5.829-64.602-10.945-96.664
			c-5.775-36.184-13.856-73.193-30.681-106.023c-13.034-25.434-36.919-52.458-68.436-49.237
			c-34.513,3.527-58.688,37.429-75.388,64.495c-18.277,29.623-32.052,61.85-44.932,94.102
			c-20.76,51.988-41.016,104.062-58.437,157.287c-19.71,60.217-36.209,121.527-48.173,183.765c-0.119,0.624-0.238,1.247-0.356,1.87
			C109.681,679.031,124.137,683.063,125.947,673.568L125.947,673.568z"/>
	</g>
</g>
<g>
	<g>
		<path fill="#FFD700" d="M47.597,445.313c142.72-39.081,285.048-79.594,428.061-117.601
			c71.77-19.074,143.828-36.875,215.866-54.891c72.068-18.024,143.529-38.358,215.322-57.422
			c47.068-12.499,94.318-24.312,141.842-34.952c44.641-9.995,89.865-18.773,131.818-37.646c8.811-3.963,1.176-16.886-7.57-12.952
			c-30.67,13.796-63.631,21.734-96.324,29.076c-34.352,7.713-68.703,15.351-102.889,23.784
			c-72.027,17.77-143.408,38.034-215.074,57.182c-71.754,19.17-144.061,36.147-215.964,54.733
			c-71.721,18.539-143.228,37.895-214.653,57.54c-94.847,26.086-189.546,52.706-284.423,78.686
			C34.292,433.399,38.252,447.871,47.597,445.313L47.597,445.313z"/>
	</g>
</g>
<g>
	<g>
		<path fill="#FFD700" d="M564.369,268.711c37.394-34.562,59.884-85.741,68.851-135.202c2.975-16.407,4.028-32.723,3.354-49.349
			c-0.643-15.842-1.491-35.185-10.405-48.913c-6.856-10.56-20.382-12.245-30.456-5.172c-9.63,6.761-14.785,18.088-18.488,28.887
			c-9.678,28.22-10.842,60.488-8.302,89.972c1.171,13.605,3.221,27.501,7.992,40.357c3.642,9.811,9.161,20.051,19.443,24.024
			c16.112,6.226,27.031-9.439,32.566-22.117c3.36-7.695,5.857-15.809,9.518-23.281c3.265-6.663,9.802-12.436,14.894-19.689
			c0.372-0.531,0.742-1.064,1.117-1.595c0.939-1.333-1.107,1.198,0.193-0.221c0.566-0.529,0.287-0.323-0.836,0.619
			c-0.876,0.509-1.821,0.768-2.836,0.778c-2.138,0.11-1.484-0.267-0.417,0.089c4.351,1.448,8.524,3.065,13.009,4.135
			c12.262,2.924,21.971,10.298,32.848,16.179c13.049,7.054,28.133,8.956,42.682,6.434c7.445-1.291,14.523-4.068,21.896-5.659
			c7.016-1.514,12.697,0.833,18.338,4.941c3.313,2.412,8.352,0.57,10.262-2.691c2.223-3.794,0.607-7.86-2.691-10.261
			c-10.357-7.542-21.434-8.697-33.619-5.571c-11.898,3.053-22.797,6.741-35.289,4.679c-8.936-1.475-16.318-6.023-23.896-10.691
			c-9.18-5.656-18.688-9.811-29.15-12.465c-5.885-1.493-12.426-5.949-18.479-2.959c-2.336,1.153-3.861,3.529-5.306,5.578
			c-2.672,3.79-5.451,7.426-8.466,10.955c-5.396,6.317-8.61,12.484-11.676,20.25c-3.045,7.715-5.697,15.615-10.055,22.723
			c-1.544,2.518-3.408,4.541-5.399,5.672c-0.735,0.417-1.238,0.381-2.027,0.392c-2.982,0.043,0.7,0.401-1.641-0.171
			c-2.345-0.573,0.766,0.543-0.89-0.279c-0.769-0.381-1.483-0.864-2.175-1.367c1.933,1.404-0.432-0.501-0.876-0.952
			c-0.341-0.346-0.66-0.712-0.979-1.078c-1.383-1.583,0.392,0.592-0.395-0.49c-1.33-1.827-2.431-3.816-3.44-5.833
			c-1.445-2.888-1.432-3.004-2.679-6.637c-2.072-6.034-3.465-12.296-4.582-18.57c-4.959-27.867-4.162-60.193,2.159-88.147
			c1.429-6.318,3.27-12.555,5.696-18.564c-0.418,1.037,0.925-2.035,1.207-2.624c0.563-1.175,1.176-2.325,1.811-3.462
			c0.6-1.074,1.253-2.116,1.93-3.143c0.323-0.49,0.666-0.968,1.01-1.444c0.756-1.05-0.769,0.899,0.576-0.692
			c0.688-0.815,1.436-1.576,2.207-2.312c1.804-1.72-0.28,0.018,1.208-1.028c0.78-0.547,1.614-1.01,2.466-1.436
			c1.494-0.746-1.635,0.616-0.081,0.041c0.575-0.212,1.169-0.368,1.764-0.513c1.86-0.456-1.349-0.039,1.221-0.127
			c0.476-0.016,0.952,0.009,1.427,0.034c1.729,0.09-1.786-0.315-0.043-0.027c0.4,0.066,2.06,0.766,0.404,0.005
			c0.281,0.129,1.859,1.21,0.485,0.138c0.501,0.391,0.941,0.857,1.38,1.315c0.675,0.705-0.073-0.26,0.906,1.248
			c3.602,5.548,5.047,13.584,6.196,20.779c1.308,8.19,1.713,16.56,1.929,24.841c0.451,17.25-1.396,34.145-5.091,51.02
			c-9.499,43.384-29.89,87.544-62.882,118.039C546.645,264.683,557.278,275.265,564.369,268.711L564.369,268.711z"/>
	</g>
</g>
<g>
	<g>
		<path fill="#FFD700" d="M782.173,69.046c9.674,0,9.674-15,0-15C772.501,54.046,772.501,69.046,782.173,69.046L782.173,69.046z"/>
	</g>
</g>
<g>
	<g>
		<path fill="#FFD700" d="M552.429,524.7c13.207-21.601,23.199-44.872,30.72-69.021c3.56-11.432,6.882-23.108,9.433-34.806
			c2.048-9.392,3.3-20.301,10.731-27.153c-4.178-1.103-8.357-2.206-12.535-3.31c16.651,43.868,19.075,91.377,26.045,137.348
			c2.888,19.047,6.083,38.497,10.901,57.165c4.41,17.087,12.112,34.272,27.594,43.946c2.848,1.779,6.758,1.156,9.088-1.174
			c28.912-28.891,31.822-74.141,30.482-112.659c-1.504-43.151-10.043-85.551-14.908-128.354c-0.621-5.46-1.139-10.932-1.508-16.415
			c-4.91,0.665-9.82,1.329-14.73,1.994c29.607,85.381,40.471,175.704,66.67,262.037c4.822-1.33,9.643-2.658,14.465-3.988
			c-9.133-23.646-14.234-49.5-18.01-74.467c-2.379-15.728-3.723-31.807-3.191-47.759c0.428-12.769,2.326-26.37,8.352-36.703
			c2.375-4.073,5.258-7.035,9.027-9.242c2.318-1.357,2.785-1.515,6.203-2.351c0.682-0.166,1.373-0.289,2.063-0.411
			c2.303-0.409-1.494,0.134,0.891-0.095c1.801-0.171,3.613-0.162,5.42-0.1c6.113,0.217,10.977,1.436,14.568,4.815
			c3.4,3.2,5.355,8.663,5.896,13.335c1.629,14.062-2.932,28.545-9.744,41.106c-6.434,11.86-16.131,23.347-28.502,25.979
			c2.432,4.179,4.865,8.356,7.297,12.535c9.855-9.479,20.912-16.987,31.752-25.303c14.754-11.317,29.354-22.906,42.611-35.973
			c22.102-21.78,45.98-55.304,25.164-85.864c-2.18-3.199-6.705-5.099-10.262-2.691c-10.225,6.926-16.412,20.322-21.564,31.092
			c-7.285,15.222-13.352,31.482-16.15,48.172c-2.199,13.118-3.082,29.806,8.738,38.743c5.109,3.861,12.707,4.979,18.746,2.987
			c7.068-2.329,11.979-8.402,15.295-14.796c6.361-12.263,8.559-26.473,10.184-40.026c1.316-10.968,2.158-22.349,1.268-33.39
			c-4.912,0.664-9.822,1.329-14.732,1.994c4.58,15.559,9.318,31.158,16.865,45.589c7.127,13.628,20.533,29.945,37.975,25.259
			c16.352-4.393,27.854-22.645,35.836-36.238c8.527-14.523,16.809-31.389,19.539-48.173c0.594-3.648-0.896-8.557-5.238-9.226
			c-17.73-2.732-32.83,5.628-42.805,20.063c-8.346,12.076-12.186,28.713-6.143,42.494c5.396,12.312,21.811,15.956,33.514,11.373
			c9.932-3.89,16.596-12.379,20.967-21.842c5.545-12.002,8.266-25.053,10.088-38.078c2.283-16.327,3.164-32.792,3.377-49.267
			c0.445-34.416-1.938-68.872-5.332-103.101c-2.191-22.091-4.85-44.16-8.178-66.11c-4.822,1.329-9.645,2.658-14.465,3.987
			c11.064,42.599,14.453,86.504,18.01,130.224c1.648,20.269,3.494,40.512,5.801,60.717c2.076,18.195,4.746,37.168,14.182,53.215
			c2.525,4.293,8.238,4.785,11.779,1.518c12.004-11.074,19.055-26.748,24.176-41.963c6.352-18.871,9.416-38.911,10.754-58.726
			c1.359-20.113,0.398-40.459-3.285-60.29c-3.084-16.609-8.686-33.057-19.1-46.527c-0.994-1.286-2.076-2.499-3.189-3.68
			c-4.004-4.239-10.916-1.911-12.537,3.31c-4.385,14.12-5.309,29.483-5.863,44.167c-0.74,19.584,0.137,39.25,2.121,58.738
			c1.998,19.6,5.129,39.229,10.637,58.171c4.279,14.72,10.182,30.422,21.105,41.581c3.785,3.866,11.348,2.264,12.535-3.31
			c6.555-30.744,4.08-62.556,10.631-93.27c-3.674,1.494-7.346,2.988-11.018,4.482c10.488,5.718,15.795,18.155,20.93,28.331
			c6.186,12.259,12.398,25.314,23.064,34.375c3.156,2.681,7.486,3.012,10.607,0c12.35-11.921,14.051-30.523,14.365-46.739
			c0.346-17.934-2.252-36.061-0.133-53.936c-3.166,2.411-6.33,4.821-9.494,7.232c8.359,2.534,14.842,11.085,21.402,16.505
			c9.287,7.67,19.441,12.3,31.65,10.204c11.176-1.919,19.531-12.124,25.146-21.163c5.814-9.362,9.814-20.093,12.76-30.677
			c-4.57,0.597-9.139,1.194-13.709,1.792c0.258,0.511,0.498,1.03,0.727,1.555c-1.148-2.629-0.078-0.132,0.158,0.494
			c0.68,1.808,1.275,3.647,1.848,5.492c1.488,4.78,2.744,9.634,3.932,14.497c3.205,13.119,5.738,26.408,7.883,39.739
			c2.326,14.459,4.043,28.885,4.938,43.875c0.418,6.983,0.596,13.982,0.451,20.977c-0.064,3.053-0.219,6.104-0.449,9.148
			c-0.289,3.822-0.432,4.908-0.881,7.657c-0.396,2.433-0.924,4.844-1.572,7.222c-0.295,1.078-0.639,2.143-1.006,3.197
			c-0.174,0.501-0.367,0.994-0.561,1.488c0.791-2.018-0.07,0.107-0.266,0.513c-0.408,0.849-0.877,1.667-1.373,2.467
			c-1.307,2.106,0.529-0.442-0.641,0.923c-0.529,0.617-1.123,1.172-1.742,1.695c1.895-1.604-0.387,0.144-1.086,0.486
			c2.273-1.115-0.02-0.07-0.76,0.098c-1.473,0.336,1.949-0.188,0.418-0.042c-0.41,0.038-0.824,0.038-1.238,0.04
			c-2.504,0.004,0.871,0.298-1.094-0.086c-1.15-0.225-2.27-0.597-3.367-1.002c-1.752-0.646,1.506,0.693-0.264-0.119
			c-0.545-0.249-1.076-0.527-1.605-0.805c-1.16-0.605-2.275-1.297-3.375-2.002c-2.736-1.754-3.773-2.547-5.994-4.671
			c-4.229-4.047-5.666-6.396-8.885-11.8c-3.213-5.391-6.143-11.688-8.174-16.758c-5.699-14.235-9.574-29.222-12.168-44.317
			c-2.48-14.426-3.5-29.774-2.289-44.699c0.918-11.335,3.539-23.244,10.469-32.556c-0.912,1.227,1.27-1.372,1.676-1.795
			c0.848-0.881,1.768-1.688,2.711-2.462c-1.287,1.057,1.461-0.927,1.969-1.231c0.521-0.312,1.063-0.59,1.602-0.868
			c1.82-0.935-0.115-0.028,1.027-0.465c4.902-1.874,9.922-1.997,14.572-1.25c3.01,0.483,6.033,1.24,8.908,2.264
			c1.686,0.601-1.543-0.708,0.152,0.046c0.51,0.227,1.01,0.48,1.508,0.731c1.258,0.636,2.469,1.369,3.66,2.122
			c4.93,3.115,8.689,6.574,13.451,11.301c23.967,23.796,42.771,55.335,54.109,87.022c5.266,14.712,8.99,29.792,7.482,45.323
			c-0.488,5.027-2.396,10.973-5.41,15.713c-2.365,3.719-8.564,9.916-13.742,9.182c-2.432-0.346-4.27-1.668-5.986-4.012
			c-2.537-3.461-4.102-7.465-5.396-11.518c-2.869-8.99-3.955-18.31-4.215-27.703c-0.678-24.665,4.422-49.147,11.434-72.669
			c14.967-50.202,39.996-97.088,66.242-142.177c4.146-7.123,8.357-14.207,12.594-21.276c4.984-8.319-7.988-15.856-12.953-7.57
			c-26.361,43.996-51.447,88.968-69.979,136.904c-9.32,24.107-16.77,49.111-20.287,74.761c-2.938,21.417-3.611,43.945,3.039,64.777
			c2.779,8.707,7.182,17.247,15.01,22.375c8.121,5.318,19.662,3.072,26.992-2.588c11.9-9.191,17.068-22.809,17.912-37.51
			c0.934-16.251-3.484-32.863-8.992-47.998c-6.369-17.502-14.959-34.205-24.844-49.967c-9.027-14.396-19.328-28.253-31.189-40.448
			c-8.605-8.847-18.457-17.222-30.59-20.484c-12.25-3.295-26.23-2.828-36.691,5.059c-10.217,7.701-15.717,19.488-18.635,31.689
			c-7.102,29.688-2.188,62.802,6.08,91.721c6.766,23.66,17.502,52.164,41.229,63.562c9.105,4.373,19.65,4.673,27.033-3.108
			c7.338-7.734,9.25-19.254,10.486-29.405c3.469-28.489-0.91-58.382-5.564-86.481c-2.123-12.821-4.664-25.588-7.797-38.202
			c-1.973-7.946-3.975-16.287-7.689-23.641c-3.004-5.949-12.045-4.179-13.707,1.792c-2.406,8.649-5.576,17.006-9.941,24.865
			c-3.691,6.65-9.596,15.604-17.932,16.583c-8.775,1.031-16.021-5.716-22.037-11.147c-6.816-6.154-13.586-12.916-22.596-15.647
			c-5.102-1.546-8.943,2.582-9.494,7.232c-1.904,16.061,0.002,32.42,0.152,48.532c0.127,13.441,0.482,31.425-9.992,41.536
			c3.537,0,7.072,0,10.607,0c-20.68-17.566-22.152-51.489-47.031-65.051c-4.043-2.203-9.977-0.404-11.018,4.482
			c-6.557,30.743-4.082,62.556-10.631,93.27c4.18-1.104,8.357-2.206,12.537-3.31c-8.615-8.801-13.848-23.261-17.553-36.007
			c-5.146-17.704-8.057-36.065-9.922-54.381c-1.908-18.717-2.625-37.591-2.035-56.397c0.447-14.253,1.178-27.79,5.367-41.278
			c-4.178,1.104-8.357,2.207-12.535,3.31c9.541,10.104,14.469,25.216,17.555,39.25c4.094,18.618,4.775,37.966,3.842,56.953
			c-0.918,18.715-3.904,37.373-9.426,55.293c-4.348,14.118-10.668,28.644-21.326,38.477c3.928,0.506,7.854,1.012,11.779,1.518
			c-8.844-15.041-10.795-33.347-12.662-50.375c-2.252-20.544-4.064-41.118-5.738-61.717c-3.502-43.117-7.17-86.483-18.078-128.481
			c-2.49-9.587-15.877-5.32-14.465,3.987c0.551,3.633,1.074,7.27,1.582,10.908c0.156,1.121,0.311,2.242,0.463,3.363
			c0.082,0.593,0.162,1.187,0.242,1.781c-0.262-1.934,0.023,0.183,0.063,0.48c0.391,2.928,0.768,5.858,1.139,8.789
			c1.787,14.137,3.352,28.303,4.707,42.487c3.287,34.392,5.439,69.012,4.672,103.573c-0.344,15.441-1.344,31.404-3.785,45.969
			c-2.016,12.029-4.969,23.882-10.357,33.109c-0.58,0.994-1.213,1.956-1.867,2.903c-0.197,0.287-1.348,1.804-0.143,0.255
			c-0.33,0.424-0.678,0.833-1.027,1.241c-0.674,0.789-1.402,1.529-2.15,2.248c-0.363,0.348-0.746,0.676-1.127,1.004
			c-1.002,0.859,1.285-0.891-0.439,0.318c-0.787,0.553-1.625,1.031-2.477,1.479c-1.68,0.885,1.098-0.282-1.279,0.526
			c-0.912,0.311-1.852,0.524-2.795,0.707c-1.711,0.33,1.801-0.183,0.047-0.006c-0.939,0.096-1.887,0.104-2.828,0.112
			c-2.951,0.024-4.256-0.344-6.426-1.628c-1.816-1.074,0.973,0.936-0.596-0.416c-0.494-0.424-0.928-0.912-1.361-1.396
			c1.115,1.248-1.633-3.293-1.037-1.791c-2.07-5.216-1.42-10.46,0.293-16.343c3.936-13.509,16.555-27.03,31.477-24.73
			c-1.746-3.075-3.492-6.15-5.238-9.226c-2.289,14.076-8.793,27.718-15.521,40.146c-3.99,7.37-8.473,14.603-13.805,21.083
			c-3.762,4.572-9.336,10.299-14.057,12.197c-3.959,1.59-7.721,0.445-11.471-2.735c-5.383-4.565-8.961-10.94-12.123-17.142
			c-6.438-12.635-10.32-26.436-14.309-39.986c-2.318-7.874-15.434-6.684-14.732,1.994c1.146,14.217-0.232,29.072-2.725,43.067
			c-1.379,7.739-3.342,16.038-6.68,22.778c-1.568,3.168-2.557,4.648-4.652,6.683c-1.23,1.194-2.566,1.657-4.141,1.649
			c-3.121-0.013-5.154-2.08-6.053-4.559c-0.449-1.238-0.736-2.531-0.986-3.821c-0.436-2.235,0.131,1.526-0.123-0.815
			c-0.082-0.74-0.121-1.486-0.162-2.23c-0.193-3.57,0.09-7.162,0.51-10.705c1.748-14.736,7.91-31.244,14.467-45.287
			c2.867-6.139,6.053-12.145,9.682-17.869c0.779-1.229,1.598-2.433,2.436-3.622c0.383-0.544,0.781-1.078,1.182-1.61
			c-1.021,1.361,0.193-0.209,0.354-0.403c0.682-0.825,1.41-1.608,2.166-2.362c0.326-0.325,0.672-0.629,1.02-0.931
			c1.178-1.027-1.436,1.018-0.238,0.207c-3.42-0.897-6.84-1.794-10.26-2.691c7.404,10.872,7.734,22.217,2.516,34.002
			c-6.502,14.676-17.984,26.775-29.473,37.688c-12.203,11.591-25.475,22.019-38.836,32.226
			c-10.586,8.088-21.77,15.792-31.389,25.047c-5.686,5.469,0.248,14.035,7.297,12.535c15.072-3.207,26.549-15.486,34.557-27.947
			c8.736-13.596,14.244-29.918,14.943-46.088c0.609-14.131-4.23-29.283-17.287-36.417c-12.037-6.577-29.379-5.794-41.121,1.081
			c-24.773,14.504-25.279,51.728-24.076,76.678c1.488,30.808,7.619,61.729,16.111,91.338c1.619,5.645,3.33,11.29,5.447,16.771
			c3.408,8.825,17.326,5.443,14.465-3.988c-26.199-86.332-37.063-176.654-66.672-262.036c-2.637-7.603-15.33-6.887-14.732,1.994
			c2.783,41.288,11.65,81.966,15.104,123.214c3.182,38.005,5.18,83.879-18.387,116.375c-1.887,2.6-4.123,4.966-6.391,7.232
			c3.029-0.392,6.061-0.782,9.09-1.174c-13.631-8.516-18.546-25.53-22.002-40.273c-4.267-18.2-7.373-36.916-10.129-55.393
			c-6.691-44.85-9.277-91.046-25.516-133.828c-2.013-5.303-8.129-7.373-12.535-3.31c-7.969,7.348-11.092,17.807-13.368,28.071
			c-2.519,11.359-5.431,22.595-8.643,33.781c-7.284,25.365-17.44,49.627-31.219,72.163
			C534.417,525.406,547.394,532.937,552.429,524.7L552.429,524.7z"/>
	</g>
</g>
</svg>
